<svg width="26" height="27" viewBox="0 0 26 27" fill="none" xmlns="http://www.w3.org/2000/svg">
<path d="M24.4144 7.75H2.52405L13.4692 0.302388L24.4144 7.75ZM1.7192 25.75V8.5H25.2192V25.75H16.7192V18V17.75H16.4692H10.4692H10.2192V18V25.75H1.7192ZM16.2192 18.25V25.75H10.7192V18.25H16.2192Z" fill="black" stroke="white" stroke-width="0.5"/>
<path d="M12.7258 25.8624C12.1505 25.8624 11.6025 25.9069 11.0351 25.9069" stroke="black"/>
<path d="M8.18283 8.23843C7.21086 8.23843 6.23889 8.23843 5.26692 8.23843C5.07663 8.23843 4.76386 8.17383 4.58727 8.24818C4.27746 8.37862 3.79792 8.19464 3.53491 8.36998" stroke="black"/>
<path d="M6.24238 7.88806C6.24724 8.00461 6.25475 8.10078 6.21774 8.21393C6.15943 8.39218 6.06556 8.55443 5.97744 8.71917C5.95173 8.76723 5.93122 8.81315 5.91651 8.86568C5.89942 8.92673 5.90966 8.80406 5.90966 8.79585C5.90966 8.55673 5.94456 8.34103 5.99592 8.10987" stroke="black" stroke-linecap="round"/>
<path d="M4.45735 7.59601C4.446 7.59743 4.43057 7.64245 4.4202 7.65282C4.39441 7.67861 4.37097 7.69479 4.34044 7.71401C4.28612 7.74821 4.23024 7.79096 4.17219 7.81999C4.1511 7.83053 4.13171 7.84376 4.11209 7.85659C4.08887 7.87177 4.0593 7.87616 4.03452 7.88718C4.00289 7.90124 3.96575 7.90547 3.93127 7.9104C3.8826 7.91735 3.86309 7.95625 3.82311 7.98196C3.78177 8.00853 3.76554 8.063 3.73734 8.10241C3.70242 8.15123 3.66183 8.1954 3.61962 8.23762C3.6 8.25724 3.57615 8.27236 3.55871 8.29416C3.5312 8.32854 3.49216 8.35622 3.46147 8.38785C3.41015 8.44073 3.34548 8.47924 3.2883 8.52524C3.2457 8.55951 3.20345 8.59549 3.16183 8.63095C3.04393 8.73138 2.9296 8.8386 2.82013 8.94806" stroke="black" stroke-linecap="round"/>
<path d="M3.91652 7.7583C3.91258 7.77997 3.88164 7.79809 3.86708 7.81266C3.83922 7.84051 3.81147 7.8698 3.7794 7.89296C3.76776 7.90137 3.75458 7.91032 3.74553 7.92164C3.74105 7.92724 3.73952 7.93873 3.73652 7.9454C3.72664 7.96735 3.70854 7.98778 3.69309 8.00604C3.6701 8.03321 3.64092 8.05722 3.61661 8.08389C3.55461 8.15191 3.48031 8.20545 3.41257 8.26717C3.37353 8.30274 3.33159 8.33268 3.28938 8.36413C3.24174 8.39964 3.19999 8.44203 3.15172 8.47667C3.08425 8.52508 3.0101 8.5621 2.9455 8.61378C2.91794 8.63583 2.90477 8.67583 2.8753 8.69737C2.83244 8.72869 2.79874 8.77182 2.75621 8.80171C2.7083 8.83537 2.6554 8.848 2.60598 8.87545C2.57588 8.89218 2.55769 8.93192 2.53005 8.9492C2.51897 8.95612 2.50893 8.97136 2.49809 8.97979C2.48712 8.98833 2.46105 8.98286 2.4563 8.99236" stroke="black" stroke-linecap="round"/>
<path d="M1.06851 7.94498C1.0465 7.94498 0.987003 7.95765 1.00256 7.94209C1.02225 7.9224 1.07324 7.94665 1.09296 7.9289C1.1167 7.90753 1.17302 7.89113 1.20169 7.91024" stroke="black" stroke-linecap="round"/>
<path d="M5.02301 8.14899C5.78072 8.14899 6.53299 8.14833 7.28859 8.21072C7.55047 8.23234 7.80982 8.23232 8.0726 8.23232C8.41188 8.23232 8.74874 8.20455 9.0881 8.20455C9.50816 8.20455 8.2542 8.09749 7.83493 8.07182C7.53126 8.05323 7.22937 8.08405 6.929 8.02398C6.45757 7.92969 6.02817 7.71504 5.56626 7.59957C5.4752 7.5768 5.29718 7.55744 5.25142 7.64895C5.18006 7.79167 5.10212 7.94835 5.07857 8.10732C5.06501 8.19882 5.05476 8.29626 5.02301 8.38357C4.99742 8.45394 5.00128 8.4488 5.08166 8.45611C5.56961 8.50046 6.06253 8.48564 6.55243 8.47925C8.33364 8.45605 10.1096 8.29642 11.8908 8.26628C12.606 8.25418 13.3199 8.25254 14.0329 8.31566C14.2624 8.33598 14.5249 8.37731 14.7551 8.33727C14.8288 8.32446 14.8802 8.31095 14.9589 8.32184C15.2953 8.36842 15.6028 8.35948 15.9419 8.32955C16.2522 8.30218 16.559 8.27001 16.8664 8.21998C16.8751 8.21856 17.099 8.18943 17.0562 8.15979C16.9557 8.09019 16.7967 8.0619 16.6843 8.03169C16.1785 7.89581 15.6631 7.7924 15.1502 7.68754C13.7997 7.41138 12.4398 7.1767 11.0574 7.1767C10.5406 7.1767 10.1657 7.36635 9.71777 7.59339C9.22936 7.84094 8.74158 7.78785 8.20378 7.78785C7.81465 7.78785 7.3793 7.73392 6.99691 7.82952C6.87527 7.85993 6.65072 7.81906 6.9182 7.81563C7.14246 7.81276 7.371 7.766 7.59108 7.72612C8.07624 7.6382 8.56266 7.55038 9.05106 7.48228C10.5375 7.275 12.07 7.57444 13.5406 7.77396C14.225 7.86683 14.9096 7.95295 15.5916 8.06256C15.8427 8.10292 16.0601 8.13366 16.3108 8.09188C16.7913 8.0118 17.2874 7.9908 17.7739 7.98385C18.2806 7.97661 18.7427 8.04009 19.24 8.11503C19.5165 8.1567 19.8094 8.09527 20.0857 8.09343C20.3558 8.09163 20.6258 8.09753 20.8944 8.12738C21.011 8.14033 21.1231 8.17677 20.9268 8.17677C20.0188 8.17677 19.1239 8.00703 18.2199 7.98385C17.6137 7.96831 17.0096 7.97299 16.4065 7.90514C16.319 7.8953 15.7323 7.76644 15.9929 7.615C16.2952 7.4393 16.712 7.47452 17.0485 7.46067C17.1104 7.45812 17.5316 7.42395 17.5501 7.52549C17.583 7.70638 17.4437 7.94682 17.4004 8.11503C17.3135 8.45201 17.2382 8.8204 17.2198 9.16912C17.207 9.41197 17.258 8.87479 17.2692 8.83267C17.3783 8.42061 17.61 7.86125 17.9683 7.59957C18.4442 7.252 18.1419 8.45696 18.135 8.64285C18.1341 8.66616 18.1729 8.61479 18.1875 8.59655C18.2778 8.48321 18.3846 8.38675 18.49 8.28788C18.5764 8.20681 18.6605 8.09843 18.7616 8.03478C18.88 7.96024 18.7966 8.29059 18.794 8.30332C18.6984 8.76204 18.4911 9.18687 18.2677 9.59507C18.2395 9.64662 18.2256 9.78457 18.1798 9.74786C18.1418 9.71746 18.2366 9.40695 18.2399 9.3929C18.365 8.87105 18.5825 8.37498 18.8249 7.89743C18.8753 7.79812 19.0505 7.51556 18.9792 7.60111C18.8918 7.70598 18.4494 9.01152 18.4267 9.00244C18.3443 8.9695 18.4128 8.1304 18.4128 8.0425C18.4128 7.83724 18.4128 7.63198 18.4128 7.42672C18.4128 7.41264 18.4338 7.17583 18.4004 7.30325C18.2675 7.81068 18.0403 8.30921 17.8356 8.791C17.7632 8.96143 17.6806 9.1256 17.5979 9.29104C17.5777 9.33144 17.5502 9.44874 17.53 9.40833C17.4978 9.34395 17.58 9.15539 17.5979 9.10275C17.6728 8.88285 17.7737 8.67055 17.885 8.46691C18.0097 8.23857 18.1773 7.93076 18.439 7.83261C18.7509 7.71566 18.6628 9.00493 18.6628 9.20924C18.6628 9.25265 18.7117 9.13716 18.7307 9.09812C18.8633 8.82549 18.9896 8.552 19.1073 8.27245C19.2982 7.81907 19.5003 7.36038 19.7678 6.9452C19.8046 6.88814 19.8189 6.94281 19.8234 6.98533C19.8434 7.17403 19.8306 7.37426 19.8172 7.56253C19.779 8.09982 19.6492 8.62832 19.5579 9.15831C19.5549 9.17577 19.5063 9.51356 19.5301 9.40216C19.6045 9.05512 19.8359 8.70643 20.0209 8.40826C20.0358 8.38425 20.2386 8.06397 20.257 8.17831C20.311 8.51253 20.1543 8.91456 20.0827 9.23702C20.0658 9.31276 19.9516 9.75454 20.058 9.45C20.2385 8.93309 20.4024 8.41177 20.5673 7.88971C20.61 7.75426 20.635 7.53141 20.7463 7.42672C20.775 7.39968 20.8212 7.86822 20.8234 7.91132C20.8396 8.21917 20.8592 8.52017 20.9068 8.82496C20.9382 9.02602 20.9407 8.41599 20.9407 8.38048C20.9407 8.07991 20.9022 7.7092 21.0117 7.42054C21.0872 7.22148 21.244 7.67821 21.2587 7.71995C21.3275 7.91553 21.3846 8.11528 21.4531 8.31103C21.4887 8.41263 21.4024 7.97935 21.3976 7.92984C21.3637 7.58239 21.798 8.14287 21.8575 8.22615C21.8717 8.24613 22.0625 8.4679 22.0735 8.43604C22.1527 8.20723 21.9571 7.90907 22.0951 7.69217C22.2671 7.4219 22.4309 8.04422 22.4794 8.17368C22.5449 8.34829 22.5933 8.53028 22.6337 8.7123C22.67 8.8754 22.4447 8.43656 22.3575 8.29406C22.2875 8.17962 21.9912 7.52641 21.8791 7.89588C21.8145 8.10877 21.7888 8.90716 21.413 8.82496C21.3031 8.80091 21.2078 8.69758 21.1645 8.59655C21.1362 8.53054 21.2344 8.77542 21.2448 8.80335C21.2759 8.88691 21.2963 8.9739 21.3142 9.06108C21.3153 9.06622 21.3248 9.17219 21.3466 9.15523C21.4839 9.04847 21.525 8.91515 21.7031 8.84348C21.9169 8.75746 22.2623 8.81104 22.4131 8.61507C22.5667 8.41527 22.8496 8.72964 23.0088 8.75859C23.1464 8.78362 23.0287 8.55457 23.0967 8.53944C23.1775 8.52151 23.265 8.555 23.3128 8.62124C23.3315 8.64719 23.3981 8.7328 23.3915 8.72618C23.3264 8.66102 23.3236 8.57179 23.2681 8.49777C23.1698 8.36682 23.0246 8.28635 22.9285 8.16288C22.8646 8.08067 22.7793 7.9432 22.6909 7.89897" stroke="black" stroke-linecap="round"/>
<path d="M23.8114 9.1648C23.7531 9.11128 23.7739 9.01535 23.7739 8.9424C23.7739 8.92781 23.7825 8.8127 23.7763 8.81092C23.7152 8.79348 23.6739 8.72429 23.6424 8.67408C23.6258 8.64767 23.6085 8.61776 23.5887 8.59359C23.5788 8.5814 23.5649 8.57138 23.5565 8.55841C23.5284 8.51463 23.4902 8.46347 23.4507 8.42961C23.3849 8.37318 23.3202 8.32521 23.2718 8.25133C23.265 8.24089 23.2238 8.14629 23.2146 8.14937C23.1956 8.1557 23.201 8.15205 23.1877 8.13327C23.1578 8.09074 23.1152 8.04596 23.0923 8.00031" stroke="black" stroke-linecap="round"/>
<path d="M22.7596 7.61395C22.7742 7.61395 22.7869 7.61586 22.8013 7.61932C22.8801 7.63819 22.9597 7.65671 23.0374 7.67954C23.0945 7.6963 23.1451 7.72475 23.1966 7.75318C23.2168 7.76429 23.2518 7.78504 23.2533 7.81251C23.2544 7.83255 23.2608 7.84605 23.273 7.86319C23.3324 7.94677 23.4039 8.03494 23.479 8.10468C23.5661 8.1856 23.6481 8.27237 23.7363 8.35212C23.792 8.40255 23.849 8.45958 23.9178 8.49016C23.9992 8.52634 24.0754 8.59237 24.148 8.6434C24.1903 8.67311 24.2353 8.69991 24.2729 8.73552C24.2957 8.75709 24.3142 8.7865 24.343 8.8023C24.3637 8.81371 24.379 8.82409 24.3963 8.84017C24.4017 8.84519 24.4224 8.86286 24.4232 8.86968C24.4255 8.88981 24.4471 8.91506 24.4607 8.92871" stroke="black" stroke-linecap="round"/>
<path d="M10.9683 25.9069H11.391" stroke="black"/>
<path d="M12.1473 25.6844C12.6107 25.6381 13.0611 25.6622 13.5266 25.6622C13.931 25.6622 14.3295 25.64 14.7352 25.64C14.8454 25.64 14.9283 25.6844 15.0393 25.6844C15.132 25.6844 15.2247 25.6844 15.3173 25.6844C15.5317 25.6844 15.7534 25.6622 15.9736 25.6622" stroke="black"/>
<path d="M6.70422 8.09576C7.64149 8.09576 8.57905 8.08847 9.51627 8.09766C10.522 8.10752 11.5215 8.23293 12.5264 8.23293C12.7961 8.23293 13.0549 8.16434 13.3209 8.16434C13.4835 8.16434 13.6487 8.18145 13.8029 8.13005" stroke="black"/>
</svg>
